# xmcd
#
# Track frame offsets: 
#        150
#        14390
#        32384
#        47695
#        65316
#        89004
#        105398
#        126544
#        145238
#        165238
#
# Disc length: 2478 seconds
#
# Revision: 0
# Processed by: cddbd v1.5.2PL0 Copyright (c) Steve Scherf et al.
# Submitted via: ExactAudioCopy v0.99pb4
#
DISCID=7c09ac0a
DTITLE=Lucy Child - Mirrors and Folly
DYEAR=2008
DGENRE=Blues
TTITLE0=Naked Eye
TTITLE1=Back to the Mojave
TTITLE2=Whispering
TTITLE3=The Pendulum
TTITLE4=Dusk
TTITLE5=White Light
TTITLE6=Once
TTITLE7=Steppin' Out
TTITLE8=Handles
TTITLE9=Surrender
EXTD=
EXTT0=
EXTT1=
EXTT2=
EXTT3=
EXTT4=
EXTT5=
EXTT6=
EXTT7=
EXTT8=
EXTT9=
PLAYORDER=
